<svg xmlns="http://www.w3.org/2000/svg" viewBox="0 0 1440 320" fill="none">
  <path fill="#0099ff" fill-opacity="0.5" d="M0,160L48,176C96,192,192,224,288,218.7C384,213,480,171,576,165.3C672,160,768,192,864,197.3C960,203,1056,181,1152,165.3C1248,149,1344,139,1392,133.3L1440,128L1440,320L1392,320C1344,320,1248,320,1152,320C1056,320,960,320,864,320C768,320,672,320,576,320C480,320,384,320,288,320C192,320,96,320,48,320L0,320Z">
    <animate attributeName="d" dur="5s" repeatCount="indefinite"
      values="M0,160L48,176C96,192,192,224,288,218.7C384,213,480,171,576,165.3C672,160,768,192,864,197.3C960,203,1056,181,1152,165.3C1248,149,1344,139,1392,133.3L1440,128L1440,320L1392,320C1344,320,1248,320,1152,320C1056,320,960,320,864,320C768,320,672,320,576,320C480,320,384,320,288,320C192,320,96,320,48,320L0,320Z;
              M0,64L48,85.3C96,107,192,149,288,176C384,203,480,213,576,202.7C672,192,768,160,864,149.3C960,139,1056,149,1152,144C1248,139,1344,117,1392,106.7L1440,96L1440,320L1392,320C1344,320,1248,320,1152,320C1056,320,960,320,864,320C768,320,672,320,576,320C480,320,384,320,288,320C192,320,96,320,48,320L0,320Z;
              M0,160L48,176C96,192,192,224,288,218.7C384,213,480,171,576,165.3C672,160,768,192,864,197.3C960,203,1056,181,1152,165.3C1248,149,1344,139,1392,133.3L1440,128L1440,320L1392,320C1344,320,1248,320,1152,320C1056,320,960,320,864,320C768,320,672,320,576,320C480,320,384,320,288,320C192,320,96,320,48,320L0,320Z" />
  </path>
</svg>
